# xmcd
#
# Track frame offsets: 
#        150
#        18306
#        39089
#        53843
#        82501
#        99675
#        113603
#        138695
#        155337
#        190132
#        205057
#        230572
#        252087
#        272244
#        286802
#        331952
#        350665
#
# Disc length: 4780 seconds
#
# Revision: 5
# Processed by: cddbd v1.5.2PL0 Copyright (c) Steve Scherf et al.
# Submitted via: ExactAudioCopy v1.3
#
DISCID=e412aa11
DTITLE=Various Artist - Akella Presents - vol.81 - Rockin' Blues  CD1
DYEAR=2016
DGENRE=Blues
TTITLE0=Crooked Eye Tommy - Crooked Eye Tommy
TTITLE1=Thorbjorn Risager - Lets Go Down
TTITLE2=Albert Castiglia - Where The Devil Makes His Deals
TTITLE3=Pete Cornelius And The DeVilles - All My Heroes Are Dead
TTITLE4=A Ton of Blues - I Won't Be Your Fool
TTITLE5=Moreland and Arbuckle - When The Lights Are Burning Low
TTITLE6=145th Street - Your Little Show
TTITLE7=The Pumps - Blues Attack
TTITLE8=Bargel and Heuser - Posoned
TTITLE9=Kid Andersen - I'm Tired
TTITLE10=Randy Dawson - Singing 4U
TTITLE11=Bill Wharton And The Ingredients - Got To Rumba
TTITLE12=Tinsley Ellis - Hungry Woman Blues
TTITLE13=Jordan Patterson Band - Do You Believe
TTITLE14=Stan West - Crazy, Crazy, Crazy
TTITLE15=Jono Manson Band - Miss Fabulous
TTITLE16=Ralph De Jongh and Hans van Lier - Amazing
EXTD=
EXTT0=
EXTT1=
EXTT2=
EXTT3=
EXTT4=
EXTT5=
EXTT6=
EXTT7=
EXTT8=
EXTT9=
EXTT10=
EXTT11=
EXTT12=
EXTT13=
EXTT14=
EXTT15=
EXTT16=
PLAYORDER=
